<?xml version="1.0" standalone="no"?>
<!DOCTYPE svg PUBLIC "-//W3C//DTD SVG 20010904//EN"
 "http://www.w3.org/TR/2001/REC-SVG-20010904/DTD/svg10.dtd">
<svg version="1.0" xmlns="http://www.w3.org/2000/svg"
 width="3686.000000pt" height="2092.000000pt" viewBox="0 0 3686.000000 2092.000000"
 preserveAspectRatio="xMidYMid meet">

<g transform="translate(0.000000,2092.000000) scale(0.100000,-0.100000)"
fill="#000000" stroke="none">
<path d="M6175 13863 c-502 -64 -875 -358 -1144 -901 -199 -405 -355 -981
-425 -1572 -140 -1192 -10 -2470 334 -3277 188 -439 408 -733 695 -925 547
-367 1369 -427 1936 -143 246 123 367 233 564 510 43 61 80 112 81 114 2 2 47
-8 101 -22 180 -47 312 -68 433 -69 200 -1 319 42 446 163 48 45 81 69 96 69
13 0 82 -20 154 -44 183 -61 290 -80 459 -80 116 0 154 4 220 22 178 51 308
158 389 320 25 50 50 92 55 92 6 0 55 -11 111 -24 244 -60 457 -37 606 65 39
26 134 120 187 183 l24 30 74 -61 c144 -119 295 -196 451 -228 104 -22 290
-20 416 5 143 28 161 22 266 -84 106 -108 215 -166 431 -232 153 -47 273 -66
440 -71 255 -8 379 31 505 157 135 135 198 319 235 685 9 87 17 161 20 163 5
5 42 -54 105 -169 68 -122 181 -292 267 -399 95 -119 262 -283 367 -362 96
-72 265 -163 361 -196 274 -93 597 -60 844 85 128 75 269 229 426 465 32 49
61 88 65 88 4 0 47 -19 96 -41 218 -101 434 -149 667 -149 166 0 240 15 338
66 62 33 158 119 232 208 l24 30 139 -42 c177 -52 307 -80 414 -87 47 -4 96
-8 111 -10 43 -5 210 14 268 31 31 8 101 41 156 72 55 31 103 58 106 60 4 2 9
-88 11 -200 4 -175 8 -212 27 -266 118 -339 498 -843 753 -998 32 -20 95 -49
140 -66 74 -27 98 -31 218 -35 177 -6 233 5 738 157 806 241 942 297 1081 445
92 99 171 280 171 393 0 63 10 65 155 30 340 -83 598 -20 1062 257 68 41 125
75 126 75 1 0 0 -68 -2 -152 -5 -230 28 -408 102 -555 45 -87 151 -225 252
-328 206 -207 436 -357 650 -421 81 -25 287 -24 403 0 546 115 1160 570 1507
1116 36 58 71 105 78 105 12 0 22 -17 81 -145 145 -316 723 -578 1116 -506
164 30 304 125 386 262 85 145 122 278 169 604 47 329 62 383 153 565 74 149
145 273 333 580 90 147 178 309 288 525 105 206 126 243 139 248 14 4 40 -35
157 -240 119 -208 117 -182 22 -303 -218 -280 -238 -551 -66 -910 132 -275
291 -498 496 -696 450 -433 943 -517 1370 -233 109 73 271 228 346 332 249
346 319 795 197 1268 -57 219 -130 385 -290 653 -87 145 -92 171 -44 241 38
55 67 132 85 225 18 90 19 620 1 790 -13 124 -18 165 -53 450 -65 535 -144
850 -289 1151 -281 587 -824 978 -1320 951 -128 -7 -209 -27 -318 -78 -262
-121 -459 -365 -577 -714 -21 -60 -44 -122 -51 -137 -16 -30 -30 -33 -199 -43
-127 -8 -229 -29 -326 -66 -337 -130 -496 -448 -390 -783 17 -54 31 -112 31
-129 0 -19 -15 -54 -40 -92 -22 -34 -57 -102 -79 -152 -58 -132 -120 -253
-131 -253 -5 0 -27 26 -48 58 -94 137 -304 257 -542 308 -130 28 -390 26 -530
-4 -135 -30 -259 -90 -370 -180 l-84 -69 -47 29 c-63 38 -240 120 -316 146
-177 61 -364 92 -555 92 -162 0 -296 -19 -527 -75 -102 -24 -188 -42 -192 -40
-3 3 -41 64 -82 137 -133 234 -239 373 -372 490 -194 171 -413 278 -668 327
-143 27 -364 45 -479 38 -86 -5 -99 -4 -107 11 -5 9 -32 130 -61 267 -89 428
-160 601 -309 758 -101 107 -257 193 -416 228 -103 23 -361 16 -570 -15 -568
-85 -1069 -237 -1787 -542 -211 -90 -194 -64 -208 -314 -5 -91 -14 -205 -20
-255 -5 -49 -14 -137 -20 -195 -22 -223 -28 -271 -33 -277 -3 -3 -32 15 -64
40 -208 160 -388 246 -624 299 -85 19 -133 23 -264 23 -183 0 -270 -19 -384
-81 -93 -51 -137 -90 -201 -179 -97 -134 -69 -128 -288 -57 -277 90 -472 125
-677 124 -297 -2 -492 -113 -610 -350 -39 -78 -81 -215 -96 -316 -10 -66 -22
-96 -34 -85 -2 3 -18 85 -35 183 -66 388 -119 596 -212 831 -167 422 -497 788
-883 980 -220 109 -407 149 -595 127 -332 -39 -576 -222 -749 -562 -98 -194
-173 -461 -202 -720 -7 -58 -15 -108 -18 -111 -3 -4 -58 1 -121 12 -170 28
-325 25 -424 -6 -43 -14 -83 -25 -89 -25 -6 0 -58 47 -117 104 -239 233 -487
337 -840 352 -371 16 -779 -88 -1220 -311 -227 -115 -314 -173 -406 -270 l-80
-86 -50 21 c-79 34 -215 77 -321 101 -129 29 -346 32 -442 5 -160 -44 -282
-135 -377 -283 -30 -46 -59 -83 -66 -83 -7 0 -49 16 -94 35 -170 73 -413 149
-529 165 -116 17 -125 20 -136 48 -6 15 -30 115 -54 222 -50 223 -84 329 -160
487 -122 256 -291 457 -526 626 -254 182 -691 342 -1070 392 -101 14 -336 18
-414 8z m478 -567 c408 -62 807 -265 993 -508 136 -176 254 -566 313 -1038 30
-234 34 -304 34 -540 0 -279 -5 -316 -56 -354 -22 -16 -42 -19 -129 -19 -273
2 -458 125 -589 392 -54 111 -98 247 -155 478 -94 384 -134 494 -204 557 -91
82 -199 21 -279 -157 -137 -303 -248 -877 -302 -1562 -17 -208 -17 -850 -1
-1015 31 -315 66 -516 129 -745 94 -344 212 -515 358 -515 134 0 258 143 425
485 98 202 153 284 228 339 86 62 149 80 282 80 169 0 269 -36 313 -112 17
-29 20 -52 19 -170 -2 -443 -231 -974 -510 -1180 -236 -176 -501 -224 -866
-156 -344 63 -517 141 -688 310 -92 92 -169 196 -236 324 -290 544 -452 1362
-452 2275 1 826 131 1591 366 2142 176 413 390 632 674 688 88 18 217 18 333
1z m15667 -59 c95 -42 156 -174 214 -472 38 -191 48 -275 50 -413 1 -117 -1
-132 -19 -152 -39 -43 -121 -70 -330 -108 -103 -19 -160 -28 -330 -53 -131
-20 -380 -70 -448 -90 -49 -15 -71 -26 -77 -42 -5 -12 -23 -98 -40 -192 -42
-229 -48 -266 -60 -330 -5 -30 -14 -80 -20 -110 -5 -30 -14 -80 -20 -110 -5
-30 -14 -79 -19 -107 -6 -29 -26 -138 -45 -243 -20 -104 -36 -199 -36 -210 0
-25 11 -24 230 6 196 26 396 27 447 2 47 -23 86 -78 118 -168 39 -112 48 -149
115 -490 18 -93 23 -191 11 -214 -27 -49 -225 -120 -606 -216 -285 -72 -465
-127 -493 -153 -15 -14 -28 -72 -61 -282 -23 -146 -46 -285 -51 -310 -5 -25
-14 -81 -20 -125 -7 -44 -14 -86 -16 -94 -6 -18 68 -9 266 36 152 34 178 39
350 68 103 18 219 19 272 3 86 -26 115 -84 211 -438 58 -212 70 -274 63 -316
-9 -46 -47 -88 -93 -102 -21 -7 -69 -21 -108 -33 -80 -24 -302 -98 -580 -193
-449 -153 -567 -174 -656 -118 -24 16 -76 64 -114 108 -231 260 -319 395 -362
554 -26 94 -23 353 5 565 12 88 24 194 27 235 3 41 10 122 15 180 5 58 12 139
15 180 13 162 15 189 25 308 5 67 14 175 20 240 5 64 14 173 20 242 6 69 15
177 20 240 17 206 30 363 40 475 5 61 12 142 15 180 10 123 14 168 24 285 6
63 15 171 21 240 6 69 15 172 20 230 5 58 14 158 20 223 34 390 35 407 66 686
l17 154 81 37 c131 61 344 137 701 250 17 5 65 18 108 30 42 11 110 29 150 39
152 41 366 81 557 105 74 9 255 -1 290 -17z m-7374 -57 c195 -35 424 -199 602
-432 185 -242 293 -597 393 -1288 11 -80 24 -170 29 -200 36 -230 57 -400 65
-528 6 -87 4 -107 -10 -129 -16 -24 -21 -25 -71 -20 -101 10 -196 82 -256 193
-61 112 -119 337 -158 609 -6 44 -15 107 -20 140 -5 33 -14 96 -20 140 -31
211 -76 390 -118 468 -32 60 -115 137 -148 137 -42 0 -72 -51 -105 -180 -53
-206 -53 -528 1 -800 18 -96 71 -272 111 -373 96 -240 152 -325 512 -775 308
-383 429 -556 527 -753 95 -188 133 -330 132 -499 0 -175 -38 -296 -136 -444
-169 -254 -372 -327 -596 -215 -164 81 -349 274 -540 564 -96 145 -120 197
-120 261 0 44 6 61 42 114 22 34 69 91 102 126 60 62 63 64 112 64 70 0 114
-32 254 -181 205 -219 330 -309 428 -309 105 0 142 69 99 185 -33 92 -184 251
-507 537 -96 85 -207 189 -246 230 -126 133 -275 337 -379 518 -194 340 -331
697 -413 1080 -11 52 -26 127 -32 165 -6 39 -13 84 -16 100 -17 106 -34 343
-34 475 1 532 166 967 386 1019 54 12 62 12 130 1z m15442 -42 c113 -46 175
-91 302 -218 254 -253 346 -445 440 -911 33 -162 42 -216 69 -434 58 -453 83
-996 48 -1032 -15 -14 -82 -6 -123 15 -70 36 -143 100 -174 155 -74 128 -111
307 -165 792 -53 483 -82 598 -177 701 -55 60 -88 61 -116 2 -53 -114 -96
-303 -113 -502 -29 -324 46 -704 199 -1015 74 -150 188 -322 408 -616 291
-388 391 -547 476 -760 84 -208 111 -467 68 -640 -58 -229 -221 -427 -407
-495 -76 -27 -195 -25 -258 5 -202 96 -484 413 -632 711 -78 157 -71 204 50
353 70 85 107 111 160 111 77 0 105 -23 286 -234 189 -220 354 -319 454 -271
48 23 61 59 42 123 -34 112 -158 264 -500 612 -334 339 -427 462 -571 747
-206 407 -345 890 -405 1408 -18 155 -15 518 6 655 40 267 117 479 226 627 99
133 250 174 407 111z m-18003 -921 c71 -20 133 -50 190 -93 161 -120 338 -430
409 -717 82 -328 54 -543 -98 -772 -69 -104 -229 -268 -360 -369 -115 -90
-436 -306 -453 -306 -18 0 -130 -57 -138 -70 -4 -6 -4 -22 -1 -35 10 -38 258
-361 446 -580 95 -110 199 -238 232 -285 53 -77 59 -89 56 -129 -3 -40 -8 -48
-43 -72 -64 -44 -168 -73 -260 -72 -143 1 -235 54 -410 234 -170 175 -268 294
-515 622 -69 92 -129 165 -134 163 -25 -7 -70 -219 -127 -591 -29 -188 -79
-395 -102 -424 -20 -24 -150 8 -320 79 -91 38 -121 69 -138 145 -12 55 -9 116
21 410 5 50 14 144 20 210 12 132 30 296 60 550 29 246 84 631 130 905 6 33
14 86 20 118 5 31 14 83 20 115 5 31 14 81 19 110 33 188 88 370 134 449 31
53 108 99 340 203 271 122 481 190 656 215 86 12 282 4 346 -13z m16799 -27
c49 -24 101 -92 211 -274 99 -165 134 -240 142 -304 5 -43 2 -57 -20 -95 -30
-51 -80 -97 -105 -97 -33 1 -516 684 -510 723 2 18 16 26 83 44 102 27 148 28
199 3z m-10214 -204 c181 -49 319 -126 355 -196 28 -54 16 -234 -35 -520 -39
-221 -60 -376 -70 -515 -15 -215 -34 -423 -79 -855 -6 -52 -17 -158 -25 -235
-8 -77 -20 -228 -26 -335 -14 -259 -28 -405 -42 -435 -18 -41 -56 -49 -194
-41 -296 16 -400 78 -522 313 -129 251 -342 755 -448 1062 -63 181 -89 241
-110 248 -10 3 -19 -246 -45 -1242 -6 -225 -13 -441 -17 -480 l-7 -70 -60 -3
c-121 -7 -335 46 -406 101 -51 39 -77 87 -90 164 -6 32 -14 326 -19 653 -5
327 -12 798 -16 1045 -5 355 -3 510 10 731 17 309 27 372 61 412 22 26 27 27
112 26 143 -2 462 -79 583 -139 49 -25 118 -94 144 -142 37 -72 145 -423 235
-758 138 -521 248 -875 272 -875 5 0 9 33 9 73 0 206 22 770 35 897 8 80 19
204 25 275 6 72 15 186 21 255 14 180 39 431 45 460 17 76 37 121 62 135 41
22 145 18 242 -9z m4601 -11 c103 -15 194 -43 274 -83 397 -198 636 -720 635
-1387 -1 -234 -31 -429 -98 -630 -162 -483 -492 -949 -857 -1210 -92 -66 -291
-171 -380 -201 -69 -23 -184 -30 -242 -14 -105 29 -233 117 -349 242 -76 83
-110 139 -136 222 -19 62 -20 84 -15 230 9 218 36 628 77 1131 6 72 15 189 20
260 6 72 15 191 21 265 18 239 28 400 39 620 6 118 16 232 21 252 32 124 526
312 834 317 33 0 103 -6 156 -14z m-9961 -177 c101 -23 290 -93 374 -136 106
-56 190 -131 204 -184 8 -29 1 -88 -34 -300 -23 -144 -48 -294 -54 -333 -36
-235 -46 -296 -60 -400 -6 -44 -15 -107 -20 -140 -9 -60 -21 -149 -39 -280
-10 -74 -24 -181 -41 -315 -5 -44 -14 -116 -20 -160 -28 -227 -52 -432 -80
-685 -6 -55 -15 -136 -20 -180 -5 -44 -15 -128 -21 -187 -15 -139 -26 -153
-113 -144 -77 8 -276 58 -337 84 -70 31 -115 75 -139 140 -20 52 -21 76 -21
318 0 144 5 320 10 390 6 71 15 233 21 359 42 900 66 1242 121 1715 32 277 52
393 74 427 22 33 87 37 195 11z m-3507 -120 c170 -55 351 -155 401 -221 34
-44 41 -87 26 -162 -6 -33 -15 -84 -21 -112 -5 -29 -13 -77 -19 -105 -5 -29
-27 -161 -50 -293 -40 -239 -56 -340 -104 -680 -14 -99 -30 -211 -36 -250 -13
-95 -27 -193 -40 -295 -11 -81 -19 -140 -40 -295 -22 -159 -29 -214 -40 -295
-6 -47 -15 -112 -20 -145 -5 -33 -14 -98 -20 -145 -14 -111 -28 -201 -42 -273
-9 -49 -15 -60 -37 -69 -61 -23 -275 24 -411 90 -77 38 -95 73 -94 177 2 138
22 607 30 687 9 98 1 111 -56 92 -22 -8 -92 -25 -157 -39 -340 -74 -373 -88
-387 -166 -10 -59 -25 -281 -36 -544 -13 -304 -22 -384 -47 -403 -20 -14 -41
-12 -188 18 -222 46 -321 98 -345 181 -13 43 -12 219 0 374 25 298 31 493 41
1280 14 1180 19 1350 44 1400 19 38 22 40 72 43 82 5 269 -56 460 -150 190
-94 232 -178 188 -383 -14 -65 -30 -192 -55 -440 -23 -219 -29 -285 -40 -400
-7 -66 -16 -151 -20 -190 -5 -38 -7 -71 -4 -74 12 -13 454 66 530 94 49 19 61
40 68 125 3 36 10 103 15 150 6 47 15 130 21 185 6 55 15 136 20 180 5 44 14
123 19 175 6 52 20 174 31 270 11 96 25 216 30 265 28 256 45 340 73 363 34
28 115 21 240 -20z m18868 -279 c116 -62 260 -203 300 -294 24 -55 21 -90 -22
-212 -117 -333 -349 -791 -746 -1473 -169 -290 -318 -559 -327 -590 -38 -133
-57 -220 -102 -490 -18 -113 -46 -256 -60 -318 -23 -97 -30 -113 -49 -118 -53
-13 -323 82 -402 142 -24 18 -37 40 -49 82 -15 50 -16 72 -5 186 7 71 19 172
27 225 56 367 62 528 25 681 -49 203 -130 475 -241 810 -55 167 -114 350 -150
470 -17 58 -49 161 -70 230 -22 69 -46 152 -55 185 -18 71 -20 151 -3 161 7 4
53 13 103 21 275 38 407 -10 481 -175 48 -107 139 -404 233 -757 72 -273 121
-448 125 -453 3 -3 77 141 165 319 87 178 278 566 424 862 l266 537 36 0 c22
0 61 -13 96 -31z m-3247 -304 c191 -16 382 -95 536 -220 159 -130 299 -342
378 -570 25 -74 58 -188 66 -235 72 -383 71 -666 -3 -1025 -66 -315 -232 -664
-465 -975 -88 -118 -303 -336 -416 -423 -155 -119 -343 -224 -532 -297 -117
-46 -171 -45 -268 3 -97 48 -214 136 -317 238 -101 100 -149 169 -168 240 -19
70 -19 219 1 394 20 180 28 312 64 1008 34 650 54 971 80 1252 6 61 13 145 17
187 3 48 13 89 24 107 51 83 317 219 560 285 93 25 269 46 339 40 19 -2 66 -6
104 -9z"/>
<path d="M12005 11475 c-144 -28 -261 -85 -310 -149 -24 -31 -28 -47 -185
-659 -39 -152 -73 -284 -76 -292 -13 -34 31 -26 144 25 224 100 409 227 582
400 115 114 214 252 250 347 31 80 37 187 13 233 -20 39 -68 74 -122 91 -58
17 -218 20 -296 4z"/>
<path d="M23354 11214 c-65 -23 -92 -59 -110 -145 -30 -141 -67 -347 -120
-659 -46 -274 -89 -546 -194 -1249 -11 -74 -18 -136 -16 -139 6 -5 100 47 181
101 405 269 701 782 775 1343 18 131 8 369 -18 456 -42 139 -111 226 -220 276
-71 32 -212 41 -278 16z"/>
<path d="M25583 10290 c-103 -22 -135 -58 -157 -177 -83 -438 -147 -806 -225
-1293 -21 -130 -73 -493 -92 -640 -6 -47 -15 -109 -20 -139 -17 -101 -12 -102
102 -31 123 76 194 134 314 254 310 311 489 666 575 1136 28 149 34 418 12
510 -46 192 -134 309 -267 359 -62 23 -182 34 -242 21z"/>
</g>
</svg>
